PathFileType	4	(X/Y/Z)	Shrugging.trc																																																																									
DataRate	CameraRate	NumFrames	NumMarkers	Units	OrigDataRate	OrigDataStartFrame	OrigNumFrames																																																																					
100	100	7	25	mm	100	767	2047																																																																					
Frame#	Time	AA			AI			Ant_Sh			CV7			GH			LAH			Lat_Sh			LCAJ			LPH			Post_Sh			RAH			RCAJ			RHLE			RHME			RPH			RUA			SJN			SXS			TS			TV8			centelbow			centpxt8			centijc7			centLPHRPH			ScapulaThoracicContactPt		
		X1	Y1	Z1	X2	Y2	Z2	X3	Y3	Z3	X4	Y4	Z4	X5	Y5	Z5	X6	Y6	Z6	X7	Y7	Z7	X8	Y8	Z8	X9	Y9	Z9	X10	Y10	Z10	X11	Y11	Z11	X12	Y12	Z12	X13	Y13	Z13	X14	Y14	Z14	X15	Y15	Z15	X16	Y16	Z16	X17	Y17	Z17	X18	Y18	Z18	X19	Y19	Z19	X20	Y20	Z20	X21	Y21	Z21	X22	Y22	Z22	X23	Y23	Z23	X24	Y24	Z24	X25	Y25	Z25
																																																																												
768	7.67	-74.19956207	1618.65271	1045.564941	-118.586998	1412.388428	1004.408569	34.55717468	1578.827637	1051.949463	-79.05262756	1616.249023	878.0906372	-20.38120461	1578.602173	1051.100464	138.1856232	1773.464111	834.4725952	-20.9537468	1605.990601	1080.872681	-13.49225235	1640.141357	742.7357178	-71.1297226	1732.617798	815.2493896	-104.9695663	1578.254883	1049.793213	125.7952652	1779.518555	930.2333984	-18.45492554	1640.161499	1011.226624	-14.88660526	1325.800903	1201.588135	-50.56755829	1265.630493	1103.223755	-72.00611115	1740.262939	930.9767456	-101.0384979	1449.161743	1132.59375	74.53964233	1528.755737	889.8411865	147.2117004	1352.617676	896.8477173	-127.8668289	1549.483521	953.868103	-88.82395935	1317.099854	873.565979	-32.72708178	1295.715698	1152.405945	29.19387054	1334.858765	885.2068481	-2.256492615	1572.50238	883.9659119	-71.56791687	1736.440369	873.1130676	-106.884463	1526.841553	1001.280538
769	7.68	-74.16805267	1619.071655	1045.191406	-118.3526611	1412.546387	1004.494507	34.60064697	1579.449707	1051.631836	-79.17807007	1616.174927	877.9936523	-20.35275841	1579.094727	1050.827881	138.1832733	1773.365967	834.2565308	-20.96520805	1606.492065	1080.59082	-13.94574928	1640.247314	742.9591675	-70.98471069	1732.590942	815.1629028	-104.9788513	1578.547852	1049.589844	126.0598984	1779.338013	930.0967407	-18.49276543	1640.501343	1010.777039	-14.78075314	1326.953857	1202.21228	-49.92918777	1265.982056	1103.999756	-71.79669189	1740.262817	930.923645	-100.991745	1449.591431	1132.353149	74.51795959	1528.931396	889.8630981	147.2449646	1352.761475	896.993103	-127.9472046	1549.611938	953.857605	-88.72402191	1316.961426	873.506897	-32.35497046	1296.467957	1153.106018	29.26047134	1334.86145	885.25	-2.330055237	1572.553162	883.9283752	-71.39070129	1736.42688	873.0432739	-106.8226395	1527.07666	1001.181173
770	7.69	-74.20493317	1619.286377	1044.957642	-118.1044922	1412.528809	1004.636108	34.60552979	1579.822876	1051.392944	-79.34042358	1616.067139	877.8491211	-20.34216309	1579.392334	1050.617432	138.3308868	1773.232178	834.1118164	-20.97564125	1606.816772	1080.274536	-14.39633465	1640.12146	742.956665	-70.85234833	1732.576538	815.0521851	-104.9603271	1578.729492	1049.422974	126.1542053	1779.203857	929.9969482	-18.55415726	1640.84729	1010.41095	-14.95285225	1327.534058	1202.777222	-49.3582077	1266.251221	1104.413086	-71.71766663	1740.238403	930.8320313	-100.9185562	1449.750122	1132.013794	74.44571686	1529.009521	889.8659668	147.2380066	1352.824585	897.0953979	-128.1591034	1549.628052	953.9516602	-88.73862457	1316.827393	873.5145264	-32.15552998	1296.892639	1153.595154	29.24969101	1334.825989	885.3049622	-2.447353363	1572.53833	883.8575439	-71.28500748	1736.407471	872.9421082	-106.8228429	1527.147746	1001.181803
771	7.7	-74.17196655	1619.369751	1044.785156	-117.8718262	1412.542114	1004.840088	34.62021637	1580.015015	1051.160522	-79.43224335	1615.932129	877.786438	-20.35526848	1579.522339	1050.465576	138.616333	1773.106934	834.1386719	-20.97521973	1607.030273	1080.003906	-14.77303219	1639.917603	742.9128418	-70.78910828	1732.556885	814.9638062	-104.90168	1578.764526	1049.396851	126.4981842	1779.044312	929.7837524	-18.59494209	1640.981445	1010.214172	-15.16382694	1328.134033	1203.201782	-48.59509659	1266.423096	1104.682617	-71.56249237	1740.172119	930.7558594	-100.9189529	1449.692383	1131.702759	74.44133759	1529.002197	889.8285522	147.2489624	1352.834717	897.1671753	-128.3298035	1549.59375	954.041626	-88.76269531	1316.612793	873.5286865	-31.87946177	1297.278564	1153.9422	29.24313354	1334.723755	885.3479309	-2.495452881	1572.467163	883.8074951	-71.17580032	1736.364502	872.8598328	-106.7911987	1527.168538	1001.22229
772	7.71	-74.18431091	1619.327637	1044.638916	-117.5478058	1412.5271	1005.052612	34.67556763	1580.166138	1050.965576	-79.52832794	1615.894165	877.578186	-20.36317253	1579.551636	1050.353271	138.6737061	1772.985107	834.0479126	-20.99840164	1607.060547	1079.839966	-15.09944153	1639.615845	742.8256226	-70.66674805	1732.541016	814.8521118	-104.8246994	1578.608643	1049.413452	126.7657547	1778.907715	929.6027832	-18.68508339	1641.021851	1010.058838	-14.89769268	1328.282349	1203.404541	-47.74979782	1266.35437	1104.723755	-71.48122406	1740.139526	930.6709595	-100.7623978	1449.493408	1131.490967	74.44730377	1528.964844	889.7830811	147.2085266	1352.793701	897.2487183	-128.4931946	1549.566895	954.1151733	-88.83918762	1316.441162	873.572876	-31.32374525	1297.318359	1154.064148	29.18466949	1334.617432	885.4107971	-2.540512085	1572.429504	883.6806335	-71.07398605	1736.340271	872.7615356	-106.7417704	1527.140544	1001.268901
773	7.72	-74.12089539	1619.128662	1044.608154	-117.3628845	1412.446655	1005.225708	34.65907669	1580.20166	1050.842285	-79.57100677	1615.73999	877.4974976	-20.35789871	1579.504395	1050.27356	138.7606049	1772.912476	833.9755249	-21.01126862	1607.009033	1079.764771	-15.33554459	1639.317505	742.6621094	-70.55335236	1732.505615	814.7324219	-104.7893982	1578.434326	1049.401123	126.7220917	1778.820313	929.6100464	-18.77257156	1641.009399	1009.954651	-14.64506626	1328.208252	1203.401245	-46.84752655	1266.173584	1104.59668	-71.33507538	1740.027588	930.5940552	-100.5815887	1449.17395	1131.331421	74.41880035	1528.862549	889.6891479	147.2060699	1352.75769	897.3147583	-128.6740112	1549.429321	954.2077637	-88.80982971	1316.323608	873.6085815	-30.74629641	1297.190918	1153.998962	29.19812012	1334.540649	885.4616699	-2.57610321	1572.30127	883.5933228	-70.94421387	1736.266602	872.6632385	-106.7192637	1527.001546	1001.347209
774	7.73	-74.09830475	1618.894897	1044.598999	-117.1899261	1412.262573	1005.241821	34.75899124	1580.207764	1050.750732	-79.71277618	1615.555298	877.418457	-20.27399826	1579.385986	1050.22644	138.762207	1772.753296	833.8665161	-20.96472549	1606.863403	1079.668091	-15.54247379	1639.011475	742.4182129	-70.46008301	1732.464355	814.609375	-104.7268829	1578.125	1049.421997	126.9113388	1778.70813	929.4785156	-18.81908989	1640.735718	1009.958435	-14.04209995	1327.778442	1203.104614	-45.86450195	1265.820313	1104.340942	-71.32601929	1739.918579	930.4864502	-100.2953568	1448.671387	1131.130371	74.4083252	1528.741333	889.5350342	147.1877441	1352.649536	897.3391113	-128.7879486	1549.245728	954.2131348	-88.87332916	1316.120361	873.5892944	-29.95330095	1296.799377	1153.722778	29.15720749	1334.384949	885.4642029	-2.652225494	1572.148315	883.4767456	-70.89305115	1736.191467	872.5479126	-106.6920598	1526.801066	1001.351318
